<svg width="600" height="400" xmlns="http://www.w3.org/2000/svg" xmlns:xlink="http://www.w3.org/1999/xlink" version="1.1" baseProfile="full" viewBox="0 0 600 400">
<rect width="600" height="400" x="0" y="0" id="0" fill="none"></rect>
<path d="M60 330.5L540 330.5" fill="none" stroke="#E0E6F1"></path>
<path d="M60 291.5L540 291.5" fill="none" stroke="#E0E6F1"></path>
<path d="M60 253.5L540 253.5" fill="none" stroke="#E0E6F1"></path>
<path d="M60 214.5L540 214.5" fill="none" stroke="#E0E6F1"></path>
<path d="M60 175.5L540 175.5" fill="none" stroke="#E0E6F1"></path>
<path d="M60 137.5L540 137.5" fill="none" stroke="#E0E6F1"></path>
<path d="M60 98.5L540 98.5" fill="none" stroke="#E0E6F1"></path>
<path d="M60 60.5L540 60.5" fill="none" stroke="#E0E6F1"></path>
<path d="M60 330.5L540 330.5" fill="none" stroke="#6E7079" stroke-linecap="round"></path>
<text dominant-baseline="central" text-anchor="end" style="font-size:12px;font-family:Microsoft YaHei;" transform="translate(52 330)" fill="#6E7079">0</text>
<text dominant-baseline="central" text-anchor="end" style="font-size:12px;font-family:Microsoft YaHei;" transform="translate(52 291.4286)" fill="#6E7079">10</text>
<text dominant-baseline="central" text-anchor="end" style="font-size:12px;font-family:Microsoft YaHei;" transform="translate(52 252.8571)" fill="#6E7079">20</text>
<text dominant-baseline="central" text-anchor="end" style="font-size:12px;font-family:Microsoft YaHei;" transform="translate(52 214.2857)" fill="#6E7079">30</text>
<text dominant-baseline="central" text-anchor="end" style="font-size:12px;font-family:Microsoft YaHei;" transform="translate(52 175.7143)" fill="#6E7079">40</text>
<text dominant-baseline="central" text-anchor="end" style="font-size:12px;font-family:Microsoft YaHei;" transform="translate(52 137.1429)" fill="#6E7079">50</text>
<text dominant-baseline="central" text-anchor="end" style="font-size:12px;font-family:Microsoft YaHei;" transform="translate(52 98.5714)" fill="#6E7079">60</text>
<text dominant-baseline="central" text-anchor="end" style="font-size:12px;font-family:Microsoft YaHei;" transform="translate(52 60)" fill="#6E7079">70</text>
<text dominant-baseline="central" text-anchor="middle" style="font-size:12px;font-family:Microsoft YaHei;" y="6" transform="translate(300 338)" fill="#6E7079">blurred</text>
<path d="M96 330l58.2857 0l0 -255.15l-58.2857 0Z" fill="rgb(254,142,20)"></path>
<path d="M154.2857 330l58.2857 0l0 -148.3457l-58.2857 0Z" fill="rgb(50,50,52)"></path>
<path d="M212.5714 330l58.2857 0l0 -83.0829l-58.2857 0Z" fill="rgb(119,154,167)"></path>
<path d="M270.8571 330l58.2857 0l0 -136.4657l-58.2857 0Z" fill="rgb(48,104,119)"></path>
<path d="M329.1429 330l58.2857 0l0 -178.0071l-58.2857 0Z" fill="rgb(90,92,96)"></path>
<path d="M387.4286 330l58.2857 0l0 -130.5643l-58.2857 0Z" fill="rgb(179,184,193)"></path>
<path d="M445.7143 330l58.2857 0l0 -142.4057l-58.2857 0Z" fill="rgb(134,138,145)"></path>
<text dominant-baseline="central" text-anchor="middle" style="font: normal normal 12px Microsoft YaHei" transform="translate(125.1429 202.425)" fill="#333">66.15%</text>
<text dominant-baseline="central" text-anchor="middle" style="font: normal normal 12px Microsoft YaHei" transform="translate(183.4286 255.8271)" fill="#ccc" stroke="rgb(50,50,52)" stroke-width="2" paint-order="stroke" stroke-miterlimit="2">38.46%</text>
<text dominant-baseline="central" text-anchor="middle" style="font: normal normal 12px Microsoft YaHei" transform="translate(241.7143 288.4586)" fill="#333">21.54%</text>
<text dominant-baseline="central" text-anchor="middle" style="font: normal normal 12px Microsoft YaHei" transform="translate(300 261.7671)" fill="#eee" stroke="rgb(48,104,119)" stroke-width="2" paint-order="stroke" stroke-miterlimit="2">35.38%</text>
<text dominant-baseline="central" text-anchor="middle" style="font: normal normal 12px Microsoft YaHei" transform="translate(358.2857 240.9964)" fill="#eee" stroke="rgb(90,92,96)" stroke-width="2" paint-order="stroke" stroke-miterlimit="2">46.15%</text>
<text dominant-baseline="central" text-anchor="middle" style="font: normal normal 12px Microsoft YaHei" transform="translate(416.5714 264.7179)" fill="#333">33.85%</text>
<text dominant-baseline="central" text-anchor="middle" style="font: normal normal 12px Microsoft YaHei" transform="translate(474.8571 258.7971)" fill="#333">36.92%</text>
<path d="M-5 -5l461.6328 0l0 48l-461.6328 0Z" transform="translate(74.1836 5)" fill="rgb(0,0,0)" fill-opacity="0" stroke="#ccc" stroke-width="0"></path>
<path d="M3.5 0L21.5 0A3.5 3.5 0 0 1 25 3.5L25 10.5A3.5 3.5 0 0 1 21.5 14L3.5 14A3.5 3.5 0 0 1 0 10.5L0 3.5A3.5 3.5 0 0 1 3.5 0" transform="translate(74.1836 5)" fill="#fe8e14"></path>
<text dominant-baseline="central" text-anchor="start" style="font-size:12px;font-family:Microsoft YaHei;" x="30" y="7" transform="translate(74.1836 5)" fill="#333">Dynamsoft</text>
<path d="M3.5 0L21.5 0A3.5 3.5 0 0 1 25 3.5L25 10.5A3.5 3.5 0 0 1 21.5 14L3.5 14A3.5 3.5 0 0 1 0 10.5L0 3.5A3.5 3.5 0 0 1 3.5 0" transform="translate(176.7617 5)" fill="#323234"></path>
<text dominant-baseline="central" text-anchor="start" style="font-size:12px;font-family:Microsoft YaHei;" x="30" y="7" transform="translate(176.7617 5)" fill="#333">BoofCV</text>
<path d="M3.5 0L21.5 0A3.5 3.5 0 0 1 25 3.5L25 10.5A3.5 3.5 0 0 1 21.5 14L3.5 14A3.5 3.5 0 0 1 0 10.5L0 3.5A3.5 3.5 0 0 1 3.5 0" transform="translate(259.6172 5)" fill="#779aa7"></path>
<text dominant-baseline="central" text-anchor="start" style="font-size:12px;font-family:Microsoft YaHei;" x="30" y="7" transform="translate(259.6172 5)" fill="#333">ZXing</text>
<path d="M3.5 0L21.5 0A3.5 3.5 0 0 1 25 3.5L25 10.5A3.5 3.5 0 0 1 21.5 14L3.5 14A3.5 3.5 0 0 1 0 10.5L0 3.5A3.5 3.5 0 0 1 3.5 0" transform="translate(333.0625 5)" fill="#306877"></path>
<text dominant-baseline="central" text-anchor="start" style="font-size:12px;font-family:Microsoft YaHei;" x="30" y="7" transform="translate(333.0625 5)" fill="#333">ZBar</text>
<path d="M3.5 0L21.5 0A3.5 3.5 0 0 1 25 3.5L25 10.5A3.5 3.5 0 0 1 21.5 14L3.5 14A3.5 3.5 0 0 1 0 10.5L0 3.5A3.5 3.5 0 0 1 3.5 0" transform="translate(399.248 5)" fill="#5a5c60"></path>
<text dominant-baseline="central" text-anchor="start" style="font-size:12px;font-family:Microsoft YaHei;" xml:space="preserve" x="30" y="7" transform="translate(399.248 5)" fill="#333">OpenCV WeChat</text>
<path d="M3.5 0L21.5 0A3.5 3.5 0 0 1 25 3.5L25 10.5A3.5 3.5 0 0 1 21.5 14L3.5 14A3.5 3.5 0 0 1 0 10.5L0 3.5A3.5 3.5 0 0 1 3.5 0" transform="translate(74.1836 29)" fill="#b3b8c1"></path>
<text dominant-baseline="central" text-anchor="start" style="font-size:12px;font-family:Microsoft YaHei;" xml:space="preserve" x="30" y="7" transform="translate(74.1836 29)" fill="#333">Commercial SDK A</text>
<path d="M3.5 0L21.5 0A3.5 3.5 0 0 1 25 3.5L25 10.5A3.5 3.5 0 0 1 21.5 14L3.5 14A3.5 3.5 0 0 1 0 10.5L0 3.5A3.5 3.5 0 0 1 3.5 0" transform="translate(221.8145 29)" fill="#868a91"></path>
<text dominant-baseline="central" text-anchor="start" style="font-size:12px;font-family:Microsoft YaHei;" xml:space="preserve" x="30" y="7" transform="translate(221.8145 29)" fill="#333">Commercial SDK B</text>
</svg>