<svg width="600" height="400" xmlns="http://www.w3.org/2000/svg" xmlns:xlink="http://www.w3.org/1999/xlink" version="1.1" baseProfile="full" viewBox="0 0 600 400">
<rect width="600" height="400" x="0" y="0" id="0" fill="none"></rect>
<path d="M60 330.5L540 330.5" fill="none" stroke="#E0E6F1"></path>
<path d="M60 276.5L540 276.5" fill="none" stroke="#E0E6F1"></path>
<path d="M60 222.5L540 222.5" fill="none" stroke="#E0E6F1"></path>
<path d="M60 168.5L540 168.5" fill="none" stroke="#E0E6F1"></path>
<path d="M60 114.5L540 114.5" fill="none" stroke="#E0E6F1"></path>
<path d="M60 60.5L540 60.5" fill="none" stroke="#E0E6F1"></path>
<path d="M60 330.5L540 330.5" fill="none" stroke="#6E7079" stroke-linecap="round"></path>
<text dominant-baseline="central" text-anchor="end" style="font-size:12px;font-family:Microsoft YaHei;" transform="translate(52 330)" fill="#6E7079">0</text>
<text dominant-baseline="central" text-anchor="end" style="font-size:12px;font-family:Microsoft YaHei;" transform="translate(52 276)" fill="#6E7079">20</text>
<text dominant-baseline="central" text-anchor="end" style="font-size:12px;font-family:Microsoft YaHei;" transform="translate(52 222)" fill="#6E7079">40</text>
<text dominant-baseline="central" text-anchor="end" style="font-size:12px;font-family:Microsoft YaHei;" transform="translate(52 168)" fill="#6E7079">60</text>
<text dominant-baseline="central" text-anchor="end" style="font-size:12px;font-family:Microsoft YaHei;" transform="translate(52 114)" fill="#6E7079">80</text>
<text dominant-baseline="central" text-anchor="end" style="font-size:12px;font-family:Microsoft YaHei;" transform="translate(52 60)" fill="#6E7079">100</text>
<text dominant-baseline="central" text-anchor="middle" style="font-size:12px;font-family:Microsoft YaHei;" xml:space="preserve" y="6" transform="translate(300 338)" fill="#6E7079">total average</text>
<path d="M96 330l58.2857 0l0 -224.883l-58.2857 0Z" fill="#fe8e14"></path>
<path d="M154.2857 330l58.2857 0l0 -163.863l-58.2857 0Z" fill="#323234"></path>
<path d="M212.5714 330l58.2857 0l0 -86.049l-58.2857 0Z" fill="#779aa7"></path>
<path d="M270.8571 330l58.2857 0l0 -105.165l-58.2857 0Z" fill="#306877"></path>
<path d="M329.1429 330l58.2857 0l0 -132.003l-58.2857 0Z" fill="#5a5c60"></path>
<path d="M387.4286 330l58.2857 0l0 -119.097l-58.2857 0Z" fill="#b3b8c1"></path>
<path d="M445.7143 330l58.2857 0l0 -121.608l-58.2857 0Z" fill="#868a91"></path>
<text dominant-baseline="central" text-anchor="middle" style="font: normal normal 12px Microsoft YaHei" transform="translate(125.1429 217.5585)" fill="#333">83.29%</text>
<text dominant-baseline="central" text-anchor="middle" style="font: normal normal 12px Microsoft YaHei" transform="translate(183.4286 248.0685)" fill="#ccc" stroke="#323234" stroke-width="2" paint-order="stroke" stroke-miterlimit="2">60.69%</text>
<text dominant-baseline="central" text-anchor="middle" style="font: normal normal 12px Microsoft YaHei" transform="translate(241.7143 286.9755)" fill="#333">31.87%</text>
<text dominant-baseline="central" text-anchor="middle" style="font: normal normal 12px Microsoft YaHei" transform="translate(300 277.4175)" fill="#eee" stroke="#306877" stroke-width="2" paint-order="stroke" stroke-miterlimit="2">38.95%</text>
<text dominant-baseline="central" text-anchor="middle" style="font: normal normal 12px Microsoft YaHei" transform="translate(358.2857 263.9985)" fill="#eee" stroke="#5a5c60" stroke-width="2" paint-order="stroke" stroke-miterlimit="2">48.89%</text>
<text dominant-baseline="central" text-anchor="middle" style="font: normal normal 12px Microsoft YaHei" transform="translate(416.5714 270.4515)" fill="#333">44.11%</text>
<text dominant-baseline="central" text-anchor="middle" style="font: normal normal 12px Microsoft YaHei" transform="translate(474.8571 269.196)" fill="#333">45.04%</text>
<path d="M-5 -5l461.6328 0l0 48l-461.6328 0Z" transform="translate(74.1836 5)" fill="rgb(0,0,0)" fill-opacity="0" stroke="#ccc" stroke-width="0"></path>
<path d="M3.5 0L21.5 0A3.5 3.5 0 0 1 25 3.5L25 10.5A3.5 3.5 0 0 1 21.5 14L3.5 14A3.5 3.5 0 0 1 0 10.5L0 3.5A3.5 3.5 0 0 1 3.5 0" transform="translate(74.1836 5)" fill="#fe8e14"></path>
<text dominant-baseline="central" text-anchor="start" style="font-size:12px;font-family:Microsoft YaHei;" x="30" y="7" transform="translate(74.1836 5)" fill="#333">Dynamsoft</text>
<path d="M3.5 0L21.5 0A3.5 3.5 0 0 1 25 3.5L25 10.5A3.5 3.5 0 0 1 21.5 14L3.5 14A3.5 3.5 0 0 1 0 10.5L0 3.5A3.5 3.5 0 0 1 3.5 0" transform="translate(176.7617 5)" fill="#323234"></path>
<text dominant-baseline="central" text-anchor="start" style="font-size:12px;font-family:Microsoft YaHei;" x="30" y="7" transform="translate(176.7617 5)" fill="#333">BoofCV</text>
<path d="M3.5 0L21.5 0A3.5 3.5 0 0 1 25 3.5L25 10.5A3.5 3.5 0 0 1 21.5 14L3.5 14A3.5 3.5 0 0 1 0 10.5L0 3.5A3.5 3.5 0 0 1 3.5 0" transform="translate(259.6172 5)" fill="#779aa7"></path>
<text dominant-baseline="central" text-anchor="start" style="font-size:12px;font-family:Microsoft YaHei;" x="30" y="7" transform="translate(259.6172 5)" fill="#333">ZXing</text>
<path d="M3.5 0L21.5 0A3.5 3.5 0 0 1 25 3.5L25 10.5A3.5 3.5 0 0 1 21.5 14L3.5 14A3.5 3.5 0 0 1 0 10.5L0 3.5A3.5 3.5 0 0 1 3.5 0" transform="translate(333.0625 5)" fill="#306877"></path>
<text dominant-baseline="central" text-anchor="start" style="font-size:12px;font-family:Microsoft YaHei;" x="30" y="7" transform="translate(333.0625 5)" fill="#333">ZBar</text>
<path d="M3.5 0L21.5 0A3.5 3.5 0 0 1 25 3.5L25 10.5A3.5 3.5 0 0 1 21.5 14L3.5 14A3.5 3.5 0 0 1 0 10.5L0 3.5A3.5 3.5 0 0 1 3.5 0" transform="translate(399.248 5)" fill="#5a5c60"></path>
<text dominant-baseline="central" text-anchor="start" style="font-size:12px;font-family:Microsoft YaHei;" xml:space="preserve" x="30" y="7" transform="translate(399.248 5)" fill="#333">OpenCV WeChat</text>
<path d="M3.5 0L21.5 0A3.5 3.5 0 0 1 25 3.5L25 10.5A3.5 3.5 0 0 1 21.5 14L3.5 14A3.5 3.5 0 0 1 0 10.5L0 3.5A3.5 3.5 0 0 1 3.5 0" transform="translate(74.1836 29)" fill="#b3b8c1"></path>
<text dominant-baseline="central" text-anchor="start" style="font-size:12px;font-family:Microsoft YaHei;" xml:space="preserve" x="30" y="7" transform="translate(74.1836 29)" fill="#333">Commercial SDK A</text>
<path d="M3.5 0L21.5 0A3.5 3.5 0 0 1 25 3.5L25 10.5A3.5 3.5 0 0 1 21.5 14L3.5 14A3.5 3.5 0 0 1 0 10.5L0 3.5A3.5 3.5 0 0 1 3.5 0" transform="translate(221.8145 29)" fill="#868a91"></path>
<text dominant-baseline="central" text-anchor="start" style="font-size:12px;font-family:Microsoft YaHei;" xml:space="preserve" x="30" y="7" transform="translate(221.8145 29)" fill="#333">Commercial SDK B</text>
</svg>