<?xml version="1.0" encoding="UTF-8" standalone="no"?>
<!-- Created with Inkscape (http://www.inkscape.org/) -->

<svg
   width="480"
   height="240"
   viewBox="0 0 127 63.500002"
   version="1.1"
   id="svg12"
   inkscape:version="1.1.1 (3bf5ae0d25, 2021-09-20)"
   sodipodi:docname="deskew.svg"
   xmlns:inkscape="http://www.inkscape.org/namespaces/inkscape"
   xmlns:sodipodi="http://sodipodi.sourceforge.net/DTD/sodipodi-0.dtd"
   xmlns="http://www.w3.org/2000/svg"
   xmlns:svg="http://www.w3.org/2000/svg">
  <sodipodi:namedview
     id="namedview14"
     pagecolor="#ffffff"
     bordercolor="#666666"
     borderopacity="1.0"
     inkscape:pageshadow="2"
     inkscape:pageopacity="0.0"
     inkscape:pagecheckerboard="0"
     inkscape:document-units="mm"
     showgrid="false"
     units="px"
     inkscape:zoom="0.85165544"
     inkscape:cx="209.5918"
     inkscape:cy="228.37874"
     inkscape:window-width="1024"
     inkscape:window-height="705"
     inkscape:window-x="-8"
     inkscape:window-y="-8"
     inkscape:window-maximized="1"
     inkscape:current-layer="layer1" />
  <defs
     id="defs9" />
  <g
     inkscape:label="Layer 1"
     inkscape:groupmode="layer"
     id="layer1">
    <g
       style="clip-rule:evenodd;fill-rule:evenodd"
       id="g37"
       transform="matrix(1.1655248,0,0,1.3130927,86.359938,16.707845)">
      <path
         d="M 22,24 H 2 V 0 h 14 l 6,6 z M 15,1 H 3 V 23 H 21 V 7 h -6 z m 3,15 v 1 H 6 v -1 z m 0,-3 v 1 H 6 v -1 z m 0,-3 v 1 H 6 V 10 Z M 16,6 h 4.586 L 16,1.414 Z"
         id="path35" />
    </g>
    <rect
       style="font-variation-settings:normal;opacity:1;vector-effect:none;fill:#000000;fill-opacity:1;fill-rule:evenodd;stroke-width:1.12857;stroke-linecap:butt;stroke-linejoin:miter;stroke-miterlimit:4;stroke-dasharray:none;stroke-dashoffset:0;stroke-opacity:1;-inkscape-stroke:none;stop-color:#000000;stop-opacity:1"
       id="rect201"
       width="24.303553"
       height="1.7086819"
       x="49.791111"
       y="30.756273" />
    <rect
       style="font-variation-settings:normal;opacity:1;vector-effect:none;fill:#000000;fill-opacity:1;fill-rule:evenodd;stroke-width:1.23711;stroke-linecap:butt;stroke-linejoin:miter;stroke-miterlimit:4;stroke-dasharray:none;stroke-dashoffset:0;stroke-opacity:1;-inkscape-stroke:none;stop-color:#000000;stop-opacity:1"
       id="rect203"
       width="7.6114016"
       height="1.5533472"
       x="66.529404"
       y="-30.644871"
       transform="rotate(45)" />
    <rect
       style="font-variation-settings:normal;opacity:1;vector-effect:none;fill:#000000;fill-opacity:1;fill-rule:evenodd;stroke-width:1.23711;stroke-linecap:butt;stroke-linejoin:miter;stroke-miterlimit:4;stroke-dasharray:none;stroke-dashoffset:0;stroke-opacity:1;-inkscape-stroke:none;stop-color:#000000;stop-opacity:1"
       id="rect205"
       width="7.6114016"
       height="1.5533472"
       x="-29.436651"
       y="-75.34903"
       transform="rotate(135)" />
  </g>
  <g
     inkscape:groupmode="layer"
     id="layer2"
     inkscape:label="Layer 2">
    <g
       style="clip-rule:evenodd;fill-rule:evenodd"
       id="g33"
       transform="matrix(1.159762,0.11575963,-0.13041604,1.3066002,13.122486,16.030449)">
      <path
         d="M 22,24 H 2 V 0 h 14 l 6,6 z M 15,1 H 3 V 23 H 21 V 7 h -6 z m 3,15 v 1 H 6 v -1 z m 0,-3 v 1 H 6 v -1 z m 0,-3 v 1 H 6 V 10 Z M 16,6 h 4.586 L 16,1.414 Z"
         id="path24" />
    </g>
  </g>
</svg>
