<?xml version="1.0" encoding="utf-8"?>
<!-- Generator: Adobe Illustrator 25.4.1, SVG Export Plug-In . SVG Version: 6.00 Build 0)  -->
<svg version="1.1" id="Layer_1" xmlns="http://www.w3.org/2000/svg" xmlns:xlink="http://www.w3.org/1999/xlink" x="0px" y="0px"
	 viewBox="0 0 1450 400" style="enable-background:new 0 0 1450 400;" xml:space="preserve">
<style type="text/css">
	.st0{fill:#E0E6F1;}
	.st1{fill:none;stroke:#E0E6F1;stroke-miterlimit:10;}
	.st2{fill:none;stroke:#D7DCE2;stroke-miterlimit:10;}
	.st3{fill:none;stroke:#6E7079;stroke-linecap:round;stroke-miterlimit:10;}
	.st4{fill:#6E7079;}
	.st5{font-family:'MicrosoftSansSerif';}
	.st6{font-size:12px;}
	.st7{font-size:16px;}
	.st8{fill:#FE8E14;}
	.st9{fill:#323234;}
	.st10{opacity:0.6;fill:#306877;enable-background:new    ;}
	.st11{fill:#306877;}
	.st12{opacity:0.6;enable-background:new    ;}
	.st13{opacity:0.2;enable-background:new    ;}
	.st14{opacity:0.4;enable-background:new    ;}
	.st15{font-family:'MyriadPro-Regular';}
	.st16{font-size:14px;}
	.st17{fill:#333333;}
	.st18{font-size:18px;}
</style>
<rect x="1216.9" y="25.1" class="st0" width="136" height="312.8"/>
<rect x="1056.7" y="25.1" class="st0" width="136" height="312.7"/>
<rect x="896.8" y="25.1" class="st0" width="136" height="313"/>
<rect x="736.8" y="25.1" class="st0" width="136.2" height="313.6"/>
<rect x="577" y="25.1" class="st0" width="136" height="313"/>
<rect x="416.8" y="25.1" class="st0" width="136" height="313.4"/>
<rect x="256.9" y="25.1" class="st0" width="136" height="312.8"/>
<rect x="96.9" y="25.1" class="st0" width="137.1" height="313.2"/>
<path class="st1" d="M85,338.5h1280"/>
<path class="st2" d="M85,284.5h1280"/>
<path class="st2" d="M85,230.5h1280"/>
<path class="st2" d="M85,176.5h1280"/>
<path class="st2" d="M85,122.5h1280"/>
<path class="st2" d="M85,68.5h1280"/>
<path class="st3" d="M85,338.5h1280"/>
<text transform="matrix(1 0 0 1 70.3262 338)" class="st4 st5 st6">0</text>
<text transform="matrix(1 0 0 1 63.6523 284)" class="st4 st5 st6">20</text>
<text transform="matrix(1 0 0 1 63.6523 230)" class="st4 st5 st6">40</text>
<text transform="matrix(1 0 0 1 63.6523 176)" class="st4 st5 st6">60</text>
<text transform="matrix(1 0 0 1 63.6523 122)" class="st4 st5 st6">80</text>
<text transform="matrix(1 0 0 1 56.9785 68)" class="st4 st5 st6">100</text>
<text transform="matrix(1 0 0 1 152.9539 50.2142)" class="st4 st5 st7">lots</text>
<text transform="matrix(1 0 0 1 298.2076 50.2142)" class="st4 st5 st7">monitor</text>
<text transform="matrix(1 0 0 1 456.6804 50.2142)" class="st4 st5 st7">nominal</text>
<text transform="matrix(1 0 0 1 597.3621 50.2142)" class="st4 st5 st7">noncompliant</text>
<text transform="matrix(1 0 0 1 762.0696 50.2142)" class="st4 st5 st7">pathological</text>
<text transform="matrix(1 0 0 1 923.8972 50.2142)" class="st4 st5 st7">perspective</text>
<text transform="matrix(1 0 0 1 1093.9526 50.2142)" class="st4 st5 st7">rotations</text>
<text transform="matrix(1 0 0 1 1253.3608 50.2142)" class="st4 st5 st7">shadows</text>
<path class="st8" d="M97,338h19.4V174.7H97V338"/>
<path class="st8" d="M257,338h19.4V68H257V338"/>
<path class="st8" d="M417,338h19.4V92.2H417V338"/>
<path class="st8" d="M577,338h19.4V99.2H577V338"/>
<path class="st8" d="M737,338h19.4V68H737V338"/>
<path class="st8" d="M897,338h19.4V152.9H897V338"/>
<path class="st8" d="M1057,338h19.4V70H1057V338"/>
<path class="st8" d="M1217,338h19.4V68H1217V338"/>
<path class="st9" d="M116.4,338h19.4V73.8h-19.4V338"/>
<path class="st9" d="M276.4,338h19.4v-15.9h-19.4V338"/>
<path class="st9" d="M436.4,338h19.4V168.4h-19.4V338"/>
<path class="st9" d="M596.4,338h19.4v-10.4h-19.4V338"/>
<path class="st9" d="M756.4,338h19.4V126.7h-19.4V338"/>
<path class="st9" d="M916.4,338h19.4v-92.6h-19.4V338"/>
<path class="st9" d="M1076.4,338h19.4V155.3h-19.4V338"/>
<path class="st9" d="M1236.4,338h19.4V81.5h-19.4V338"/>
<path class="st10" d="M135.9,338h19.4v-5.1h-19.4V338"/>
<path class="st10" d="M295.9,338h19.4v-15.9h-19.4V338"/>
<path class="st10" d="M455.9,338h19.4V199.5h-19.4V338"/>
<path class="st10" d="M615.9,338h19.4v-41.5h-19.4V338"/>
<path class="st10" d="M775.9,338h19.4V126.7h-19.4V338"/>
<path class="st10" d="M935.9,338h19.4V199.1h-19.4V338"/>
<path class="st10" d="M1095.9,338h19.4V165.4h-19.4V338"/>
<path class="st10" d="M1255.9,338h19.4V122h-19.4V338"/>
<path class="st11" d="M155.3,338h19.4V114.3h-19.4V338"/>
<path d="M315.3,338h19.4l0,0H315.3L315.3,338"/>
<path class="st11" d="M475.3,338h19.4V199.5h-19.4V338"/>
<path class="st11" d="M635.3,338h19.4v-51.9h-19.4V338"/>
<path class="st11" d="M795.3,338h19.4v-93.9h-19.4V338"/>
<path class="st11" d="M955.3,338h19.4V237.7h-19.4V338"/>
<path class="st11" d="M1115.3,338h19.4V222.3h-19.4V338"/>
<path class="st11" d="M1275.3,338h19.4V162.5h-19.4V338"/>
<path class="st12" d="M174.7,338h19.4v-48.9h-19.4V338"/>
<path d="M334.7,338h19.4l0,0H334.7L334.7,338"/>
<path class="st12" d="M494.7,338h19.4V158h-19.4L494.7,338"/>
<path class="st12" d="M654.7,338h19.4V203h-19.4V338"/>
<path class="st12" d="M814.7,338h19.4V161.9h-19.4V338"/>
<path class="st12" d="M974.7,338h19.4V222.3h-19.4V338"/>
<path class="st12" d="M1134.7,338h19.4V204h-19.4V338"/>
<path class="st12" d="M1294.7,338h19.4V95h-19.4V338"/>
<path class="st13" d="M194.1,338h19.4V68.6h-19.4V338"/>
<path class="st13" d="M354.1,338h19.4V163.3h-19.4V338"/>
<path class="st13" d="M514.1,338h19.4V95.7h-19.4V338"/>
<path d="M674.1,338h19.4v-10.4h-19.4V338"/>
<path class="st13" d="M834.1,338h19.4V220.6h-19.4V338"/>
<path class="st13" d="M994.1,338h19.4V114.3h-19.4V338"/>
<path class="st13" d="M1154.1,338h19.4V76.1h-19.4V338"/>
<path class="st13" d="M1314.1,338h19.4V108.5h-19.4V338"/>
<path d="M213.6,338H233l0,0H213.6L213.6,338"/>
<path class="st14" d="M373.6,338H393V83.9h-19.4V338"/>
<path class="st14" d="M533.6,338H553V119.9h-19.4V338"/>
<path class="st14" d="M693.6,338H713V88.8h-19.4V338"/>
<path class="st14" d="M853.6,338H873V91.5h-19.4V338"/>
<path class="st14" d="M1013.6,338h19.4V222.3h-19.4V338"/>
<path class="st14" d="M1173.6,338h19.4V114.7h-19.4V338"/>
<path class="st14" d="M1333.6,338h19.4V108.5h-19.4V338"/>
<text transform="matrix(1 0 0 1 221.373 337.7911)" class="st4 st15 st16">0</text>
<text transform="matrix(1 0 0 1 321.9723 337.7904)" class="st4 st15 st16">0</text>
<text transform="matrix(1 0 0 1 337.351 337.7904)" class="st4 st15 st16">0</text>
<g>
	<rect x="242.4" y="364.5" class="st8" width="14" height="6"/>
	<text transform="matrix(1 0 0 1 265.3607 373.2785)" class="st17 st5 st18">DBR</text>
	<text transform="matrix(1 0 0 1 355.8646 373.2785)" class="st17 st5 st18">Commercial SDK A</text>
	<text transform="matrix(1 0 0 1 563.6654 373.2785)" class="st17 st5 st18">Commercial SDK B</text>
	<text transform="matrix(1 0 0 1 769.5521 373.2785)" class="st17 st5 st18">Zxing</text>
	<text transform="matrix(1 0 0 1 867.3392 373.2785)" class="st17 st5 st18">Zbar</text>
	<text transform="matrix(1 0 0 1 957.6596 373.2785)" class="st17 st5 st18">BoofCV</text>
	<text transform="matrix(1 0 0 1 1072.7494 373.2785)" class="st17 st5 st18">OpenCV Wechat</text>
	<rect x="332.7" y="364.5" class="st9" width="14" height="6"/>
	<rect x="540.8" y="364.5" class="st10" width="14" height="6"/>
	<rect x="746.3" y="364.5" class="st11" width="14" height="6"/>
	<rect x="843.2" y="364.5" class="st12" width="14" height="6"/>
	<rect x="934.7" y="364.5" class="st13" width="14" height="6"/>
	<rect x="1049.8" y="364.5" class="st14" width="14" height="6"/>
</g>
</svg>
