<?xml version="1.0" encoding="utf-8"?>
<!-- Generator: Adobe Illustrator 25.4.1, SVG Export Plug-In . SVG Version: 6.00 Build 0)  -->
<svg version="1.1" id="Layer_1" xmlns="http://www.w3.org/2000/svg" xmlns:xlink="http://www.w3.org/1999/xlink" x="0px" y="0px"
	 viewBox="0 0 800 400" style="enable-background:new 0 0 800 400;" xml:space="preserve">
<style type="text/css">
	.st0{fill:#E0E6F1;}
	.st1{fill:none;stroke:#E0E6F1;stroke-miterlimit:10;}
	.st2{fill:none;stroke:#6E7079;stroke-linecap:round;stroke-miterlimit:10;}
	.st3{fill:#6E7079;}
	.st4{font-family:'MicrosoftSansSerif';}
	.st5{font-size:12px;}
	.st6{font-size:16px;}
	.st7{fill:#FE8E14;}
	.st8{fill:#323234;}
	.st9{opacity:0.6;fill:#306877;enable-background:new    ;}
	.st10{fill:#306877;}
	.st11{opacity:0.6;enable-background:new    ;}
	.st12{opacity:0.2;enable-background:new    ;}
	.st13{opacity:0.4;enable-background:new    ;}
	.st14{fill:#666666;}
	.st15{fill:#333333;}
	.st16{font-size:9.2981px;}
</style>
<rect x="127.4" y="23.1" class="st0" width="544.2" height="324"/>
<path class="st1" d="M80,346.5h640"/>
<path class="st1" d="M80,307.5h640"/>
<path class="st1" d="M80,269.5h640"/>
<path class="st1" d="M80,230.5h640"/>
<path class="st1" d="M80,191.5h640"/>
<path class="st1" d="M80,153.5h640"/>
<path class="st1" d="M80,114.5h640"/>
<path class="st1" d="M80,76.5h640"/>
<path class="st2" d="M80,346.5h640"/>
<text transform="matrix(1 0 0 1 65.3262 346)" class="st3 st4 st5">0</text>
<text transform="matrix(1 0 0 1 58.6523 307.4286)" class="st3 st4 st5">50</text>
<text transform="matrix(1 0 0 1 51.9785 268.8571)" class="st3 st4 st5">100</text>
<text transform="matrix(1 0 0 1 51.9785 230.2857)" class="st3 st4 st5">150</text>
<text transform="matrix(1 0 0 1 51.9785 191.7143)" class="st3 st4 st5">200</text>
<text transform="matrix(1 0 0 1 51.9785 153.1429)" class="st3 st4 st5">250</text>
<text transform="matrix(1 0 0 1 51.9785 114.5714)" class="st3 st4 st5">300</text>
<text transform="matrix(1 0 0 1 51.9785 76)" class="st3 st4 st5">350</text>
<text transform="matrix(1 0 0 1 351.0156 49.9029)" class="st3 st4 st6">average_time</text>
<path class="st7" d="M128,346h77.7V237.2H128V346"/>
<path class="st8" d="M205.7,346h77.7V103.7h-77.7V346"/>
<path class="st9" d="M283.4,346h77.7v-37.3h-77.7L283.4,346"/>
<path class="st10" d="M361.1,346h77.7V205.8h-77.7L361.1,346"/>
<path class="st11" d="M438.9,346h77.7V192.3h-77.7L438.9,346"/>
<path class="st12" d="M516.6,346h77.7V187.5h-77.7V346"/>
<path class="st13" d="M594.3,346H672V211h-77.7V346"/>
<text transform="matrix(1 0 0 1 148.5055 226.1514)" class="st14 st4 st5">141.10</text>
<text transform="matrix(1 0 0 1 226.2198 92.7406)" class="st14 st4 st5">314.04</text>
<text transform="matrix(1 0 0 1 307.2711 297.7323)" class="st14 st4 st5">48.31</text>
<text transform="matrix(1 0 0 1 381.6484 194.8469)" class="st14 st4 st5">181.68</text>
<text transform="matrix(1 0 0 1 459.3627 181.2851)" class="st14 st4 st5">199.26</text>
<text transform="matrix(1 0 0 1 537.077 176.4869)" class="st14 st4 st5">205.48</text>
<text transform="matrix(1 0 0 1 614.7913 199.9537)" class="st14 st4 st5">175.06</text>
<g>
	<text transform="matrix(1 0 0 1 165.5045 377.4854)" class="st15 st4 st16">DBR</text>
	<text transform="matrix(1 0 0 1 209.2863 377.4854)" class="st15 st4 st16">Commercial SDK A</text>
	<text transform="matrix(1 0 0 1 318.3844 377.4854)" class="st15 st4 st16">Commercial SDK B</text>
	<text transform="matrix(1 0 0 1 425.2248 377.4854)" class="st15 st4 st16">Zxing</text>
	<text transform="matrix(1 0 0 1 473.8742 377.4854)" class="st15 st4 st16">Zbar</text>
	<text transform="matrix(1 0 0 1 518.2892 377.4854)" class="st15 st4 st16">BoofCV</text>
	<text transform="matrix(1 0 0 1 580.3458 377.4854)" class="st15 st4 st16">OpenCV Wechat</text>
	<rect x="150" y="371.7" class="st7" width="10.8" height="4.6"/>
	<rect x="195.3" y="371.7" class="st8" width="10.8" height="4.6"/>
	<rect x="303" y="371.7" class="st9" width="10.8" height="4.6"/>
	<rect x="411.1" y="371.7" class="st10" width="10.8" height="4.6"/>
	<rect x="459.1" y="371.7" class="st11" width="10.8" height="4.6"/>
	<rect x="503.6" y="371.7" class="st12" width="10.8" height="4.6"/>
	<rect x="564.2" y="371.7" class="st13" width="10.8" height="4.6"/>
</g>
</svg>
