<svg width="600" height="400" xmlns="http://www.w3.org/2000/svg" xmlns:xlink="http://www.w3.org/1999/xlink" version="1.1" baseProfile="full" viewBox="0 0 600 400">
<rect width="600" height="400" x="0" y="0" id="0" fill="none"></rect>
<path d="M60 330.5L540 330.5" fill="none" stroke="#E0E6F1"></path>
<path d="M60 276.5L540 276.5" fill="none" stroke="#E0E6F1"></path>
<path d="M60 222.5L540 222.5" fill="none" stroke="#E0E6F1"></path>
<path d="M60 168.5L540 168.5" fill="none" stroke="#E0E6F1"></path>
<path d="M60 114.5L540 114.5" fill="none" stroke="#E0E6F1"></path>
<path d="M60 60.5L540 60.5" fill="none" stroke="#E0E6F1"></path>
<path d="M60 330.5L540 330.5" fill="none" stroke="#6E7079" stroke-linecap="round"></path>
<text dominant-baseline="central" text-anchor="end" style="font-size:12px;font-family:Microsoft YaHei;" transform="translate(52 330)" fill="#6E7079">0</text>
<text dominant-baseline="central" text-anchor="end" style="font-size:12px;font-family:Microsoft YaHei;" transform="translate(52 276)" fill="#6E7079">300</text>
<text dominant-baseline="central" text-anchor="end" style="font-size:12px;font-family:Microsoft YaHei;" transform="translate(52 222)" fill="#6E7079">600</text>
<text dominant-baseline="central" text-anchor="end" style="font-size:12px;font-family:Microsoft YaHei;" transform="translate(52 168)" fill="#6E7079">900</text>
<text dominant-baseline="central" text-anchor="end" style="font-size:12px;font-family:Microsoft YaHei;" transform="translate(52 114)" fill="#6E7079">1,200</text>
<text dominant-baseline="central" text-anchor="end" style="font-size:12px;font-family:Microsoft YaHei;" transform="translate(52 60)" fill="#6E7079">1,500</text>
<text dominant-baseline="central" text-anchor="middle" style="font-size:12px;font-family:Microsoft YaHei;" xml:space="preserve" y="6" transform="translate(300 338)" fill="#6E7079">Average Time</text>
<path d="M96 330l58.2857 0l0 -35.1018l-58.2857 0Z" fill="#fe8e14"></path>
<path d="M154.2857 330l58.2857 0l0 -18.891l-58.2857 0Z" fill="#323234"></path>
<path d="M212.5714 330l58.2857 0l0 -62.3286l-58.2857 0Z" fill="#868a91"></path>
<path d="M270.8571 330l58.2857 0l0 -32.3226l-58.2857 0Z" fill="#779aa7"></path>
<path d="M329.1429 330l58.2857 0l0 -252.0774l-58.2857 0Z" fill="#b3b8c1"></path>
<path d="M387.4286 330l58.2857 0l0 -28.3158l-58.2857 0Z" fill="#306877"></path>
<path d="M445.7143 330l58.2857 0l0 -136.3878l-58.2857 0Z" fill="#5a5c60"></path>
<text dominant-baseline="central" text-anchor="middle" style="font: normal normal 12px Microsoft YaHei" transform="translate(125.1429 312.4491)" fill="#333">195.01ms</text>
<text dominant-baseline="central" text-anchor="middle" style="font: normal normal 12px Microsoft YaHei" transform="translate(183.4286 320.5545)" fill="#ccc" stroke="#323234" stroke-width="2" paint-order="stroke" stroke-miterlimit="2">104.95ms</text>
<text dominant-baseline="central" text-anchor="middle" style="font: normal normal 12px Microsoft YaHei" transform="translate(241.7143 298.8357)" fill="#333">346.27ms</text>
<text dominant-baseline="central" text-anchor="middle" style="font: normal normal 12px Microsoft YaHei" transform="translate(300 313.8387)" fill="#333">179.57ms</text>
<text dominant-baseline="central" text-anchor="middle" style="font: normal normal 12px Microsoft YaHei" transform="translate(358.2857 203.9613)" fill="#333">1400.43ms</text>
<text dominant-baseline="central" text-anchor="middle" style="font: normal normal 12px Microsoft YaHei" transform="translate(416.5714 315.8421)" fill="#eee" stroke="#306877" stroke-width="2" paint-order="stroke" stroke-miterlimit="2">157.31ms</text>
<text dominant-baseline="central" text-anchor="middle" style="font: normal normal 12px Microsoft YaHei" transform="translate(474.8571 261.8061)" fill="#eee" stroke="#5a5c60" stroke-width="2" paint-order="stroke" stroke-miterlimit="2">757.71ms</text>
<path d="M-5 -5l553.2266 0l0 48l-553.2266 0Z" transform="translate(28.3867 5)" fill="rgb(0,0,0)" fill-opacity="0" stroke="#ccc" stroke-width="0"></path>
<path d="M3.5 0L21.5 0A3.5 3.5 0 0 1 25 3.5L25 10.5A3.5 3.5 0 0 1 21.5 14L3.5 14A3.5 3.5 0 0 1 0 10.5L0 3.5A3.5 3.5 0 0 1 3.5 0" transform="translate(28.3867 5)" fill="#fe8e14"></path>
<text dominant-baseline="central" text-anchor="start" style="font-size:12px;font-family:Microsoft YaHei;" x="30" y="7" transform="translate(28.3867 5)" fill="#333">Dynamsoft</text>
<path d="M3.5 0L21.5 0A3.5 3.5 0 0 1 25 3.5L25 10.5A3.5 3.5 0 0 1 21.5 14L3.5 14A3.5 3.5 0 0 1 0 10.5L0 3.5A3.5 3.5 0 0 1 3.5 0" transform="translate(130.9648 5)" fill="#323234"></path>
<text dominant-baseline="central" text-anchor="start" style="font-size:12px;font-family:Microsoft YaHei;" x="30" y="7" transform="translate(130.9648 5)" fill="#333">BoofCV</text>
<path d="M3.5 0L21.5 0A3.5 3.5 0 0 1 25 3.5L25 10.5A3.5 3.5 0 0 1 21.5 14L3.5 14A3.5 3.5 0 0 1 0 10.5L0 3.5A3.5 3.5 0 0 1 3.5 0" transform="translate(213.8203 5)" fill="#868a91"></path>
<text dominant-baseline="central" text-anchor="start" style="font-size:12px;font-family:Microsoft YaHei;" xml:space="preserve" x="30" y="7" transform="translate(213.8203 5)" fill="#333">Commercial SDK B</text>
<path d="M3.5 0L21.5 0A3.5 3.5 0 0 1 25 3.5L25 10.5A3.5 3.5 0 0 1 21.5 14L3.5 14A3.5 3.5 0 0 1 0 10.5L0 3.5A3.5 3.5 0 0 1 3.5 0" transform="translate(360.5371 5)" fill="#779aa7"></path>
<text dominant-baseline="central" text-anchor="start" style="font-size:12px;font-family:Microsoft YaHei;" x="30" y="7" transform="translate(360.5371 5)" fill="#333">ZXing</text>
<path d="M3.5 0L21.5 0A3.5 3.5 0 0 1 25 3.5L25 10.5A3.5 3.5 0 0 1 21.5 14L3.5 14A3.5 3.5 0 0 1 0 10.5L0 3.5A3.5 3.5 0 0 1 3.5 0" transform="translate(433.9824 5)" fill="#b3b8c1"></path>
<text dominant-baseline="central" text-anchor="start" style="font-size:12px;font-family:Microsoft YaHei;" xml:space="preserve" x="30" y="7" transform="translate(433.9824 5)" fill="#333">Commercial SDK A</text>
<path d="M3.5 0L21.5 0A3.5 3.5 0 0 1 25 3.5L25 10.5A3.5 3.5 0 0 1 21.5 14L3.5 14A3.5 3.5 0 0 1 0 10.5L0 3.5A3.5 3.5 0 0 1 3.5 0" transform="translate(28.3867 29)" fill="#306877"></path>
<text dominant-baseline="central" text-anchor="start" style="font-size:12px;font-family:Microsoft YaHei;" x="30" y="7" transform="translate(28.3867 29)" fill="#333">ZBar</text>
<path d="M3.5 0L21.5 0A3.5 3.5 0 0 1 25 3.5L25 10.5A3.5 3.5 0 0 1 21.5 14L3.5 14A3.5 3.5 0 0 1 0 10.5L0 3.5A3.5 3.5 0 0 1 3.5 0" transform="translate(94.5723 29)" fill="#5a5c60"></path>
<text dominant-baseline="central" text-anchor="start" style="font-size:12px;font-family:Microsoft YaHei;" xml:space="preserve" x="30" y="7" transform="translate(94.5723 29)" fill="#333">OpenCV WeChat</text>
</svg>